<?xml version="1.0" standalone="no"?>
<!DOCTYPE svg PUBLIC "-//W3C//DTD SVG 20010904//EN"
 "http://www.w3.org/TR/2001/REC-SVG-20010904/DTD/svg10.dtd">
<svg version="1.0" xmlns="http://www.w3.org/2000/svg"
 width="1280.000000pt" height="1280.000000pt" viewBox="0 0 1280.000000 1280.000000"
 preserveAspectRatio="xMidYMid meet">
<metadata>
Created by potrace 1.15, written by Peter Selinger 2001-2017
</metadata>
<g transform="translate(0.000000,1280.000000) scale(0.100000,-0.100000)"
fill="#000000" stroke="none">
<path d="M5635 12548 c-3 -18 -41 -379 -85 -802 -82 -785 -82 -784 -45 -786 6
-1 363 -38 795 -84 432 -46 787 -82 788 -80 10 7 170 1590 162 1603 -7 13
-146 30 -737 92 -400 43 -760 80 -800 84 l-72 7 -6 -34z"/>
<path d="M8365 11967 c-2 -7 -10 -79 -19 -162 -8 -82 -45 -439 -82 -793 -37
-353 -64 -645 -60 -649 7 -7 1605 -177 1612 -171 4 5 163 1507 166 1568 1 22
-1 42 -3 44 -2 2 -350 41 -774 85 -423 44 -785 83 -803 85 -21 3 -34 0 -37 -7z"/>
<path d="M2926 11878 c-3 -24 -15 -133 -26 -243 -51 -501 -131 -1253 -136
-1287 -4 -29 -2 -37 13 -42 14 -5 1381 -150 1572 -168 l35 -3 83 790 c46 435
81 799 79 810 -5 19 -49 25 -803 103 -439 46 -801 83 -804 83 -4 -1 -9 -20
-13 -43z"/>
<path d="M10365 9947 c-27 -195 -162 -1564 -155 -1571 10 -10 1600 -179 1608
-171 5 4 171 1537 171 1580 1 32 -28 36 -630 100 -893 93 -900 94 -946 100
l-42 4 -6 -42z"/>
<path d="M940 9941 c0 -7 -7 -71 -15 -144 -8 -73 -44 -415 -80 -762 -36 -346
-67 -644 -70 -662 -5 -30 -4 -32 32 -39 108 -20 1586 -168 1588 -159 10 32
166 1578 161 1593 -5 16 -59 23 -519 71 -281 29 -606 64 -722 76 -327 36 -375
39 -375 26z"/>
<path d="M338 7404 c-3 -5 -8 -38 -12 -74 -3 -36 -40 -387 -81 -781 -41 -394
-75 -724 -75 -732 0 -9 10 -19 23 -22 13 -4 376 -43 808 -88 684 -72 784 -81
788 -67 13 51 167 1578 160 1590 -6 12 -117 27 -566 74 -307 32 -634 66 -728
76 -271 30 -312 33 -317 24z"/>
<path d="M10956 7205 c-3 -22 -15 -130 -26 -240 -45 -443 -130 -1253 -135
-1291 -5 -37 -3 -42 17 -47 60 -14 1591 -168 1597 -161 11 13 173 1578 165
1597 -3 10 -11 17 -18 17 -9 0 -794 82 -1386 145 -80 8 -159 16 -177 18 -30 3
-32 1 -37 -38z"/>
<path d="M10301 4508 c-6 -68 -43 -421 -81 -785 -39 -363 -70 -670 -70 -681 0
-12 9 -23 22 -28 18 -5 1590 -174 1595 -170 4 3 163 1539 163 1575 0 34 -4 41
-22 45 -13 3 -311 35 -663 72 -352 36 -698 72 -770 80 -71 8 -137 14 -146 14
-12 0 -18 -23 -28 -122z"/>
<path d="M1055 4488 c-2 -7 -16 -125 -30 -263 -14 -137 -50 -492 -82 -788 -40
-387 -53 -541 -45 -549 9 -9 1600 -183 1608 -176 3 4 164 1532 166 1576 1 17
-1 34 -4 37 -3 3 -346 41 -764 85 -417 44 -778 82 -802 85 -30 5 -43 3 -47 -7z"/>
<path d="M3036 2598 c-3 -35 -40 -385 -81 -778 -41 -393 -75 -727 -75 -742 0
-18 7 -29 20 -33 17 -5 1593 -174 1596 -171 5 5 165 1571 162 1592 l-3 28
-780 82 c-429 46 -792 83 -806 83 -25 1 -27 -2 -33 -61z"/>
<path d="M8396 2528 c-3 -24 -17 -155 -31 -293 -14 -137 -50 -479 -80 -760
-29 -280 -50 -514 -45 -518 9 -10 1601 -179 1609 -171 9 8 171 1567 166 1591
-6 27 32 21 -525 78 -441 46 -957 100 -1041 110 l-47 5 -6 -42z"/>
<path d="M5635 2047 c-2 -18 -9 -77 -15 -132 -5 -55 -41 -403 -80 -774 -39
-370 -68 -676 -65 -679 8 -8 1606 -175 1612 -168 9 9 172 1575 166 1596 -3 11
-10 20 -16 20 -5 0 -224 23 -486 50 -262 28 -604 64 -761 80 -157 16 -299 32
-317 34 -30 4 -33 2 -38 -27z"/>
</g>
</svg>
